<?xml version="1.0" standalone="no"?>
<!DOCTYPE svg PUBLIC "-//W3C//DTD SVG 20010904//EN"
 "http://www.w3.org/TR/2001/REC-SVG-20010904/DTD/svg10.dtd">
<svg version="1.0" xmlns="http://www.w3.org/2000/svg"
 width="150.000000pt" height="150.000000pt" viewBox="0 0 150.000000 150.000000"
 preserveAspectRatio="xMidYMid meet">
<metadata>
Created by potrace 1.11, written by Peter Selinger 2001-2013
</metadata>
<g transform="translate(0.000000,150.000000) scale(0.100000,-0.100000)"
fill="#000000" stroke="none">
<path d="M390 1089 c0 -324 3 -410 13 -407 9 4 13 48 15 166 1 97 6 162 12
162 6 0 10 46 10 114 l0 113 32 27 c32 26 68 35 68 16 0 -5 11 -10 25 -10 l25
0 0 -120 0 -119 35 -17 35 -16 0 -153 c0 -144 1 -153 20 -158 19 -5 20 -14 20
-200 0 -119 4 -207 11 -227 9 -26 9 -34 -2 -41 -11 -6 -11 -11 -1 -21 35 -35
37 -5 40 657 l3 645 -181 0 -180 0 0 -411z"/>
<path d="M1180 1073 c0 -181 3 -385 7 -455 l6 -128 29 0 c23 0 28 -4 28 -25 0
-14 11 -37 26 -51 27 -28 28 -28 159 -7 l50 8 6 150 c4 83 7 304 8 493 l1 342
-160 0 -160 0 0 -327z m180 -623 c0 -23 -38 -28 -58 -8 -20 20 -14 28 23 28
28 0 35 -4 35 -20z"/>
<path d="M870 760 l0 -430 37 0 c24 0 45 -8 60 -22 13 -12 25 -19 28 -16 3 3
8 87 12 188 5 138 9 183 20 187 7 3 13 14 13 25 0 19 4 20 54 14 l54 -7 7 113
c3 62 5 172 3 243 l-3 130 -142 3 -143 3 0 -431z"/>
<path d="M230 565 c0 -386 3 -565 10 -565 7 0 10 58 8 174 -3 166 -2 174 14
159 12 -11 18 -31 18 -63 0 -57 24 -120 46 -120 8 0 12 -4 9 -10 -3 -5 3 -10
14 -10 23 0 28 15 9 23 -10 4 -10 6 0 6 9 1 12 105 12 486 l0 485 -70 0 -70 0
0 -565z m47 -71 c-3 -3 -12 -4 -19 -1 -8 3 -5 6 6 6 11 1 17 -2 13 -5z m3 -39
c0 -8 -7 -15 -15 -15 -8 0 -15 7 -15 15 0 8 7 15 15 15 8 0 15 -7 15 -15z m0
-49 c0 -2 -7 -6 -15 -10 -8 -3 -15 -1 -15 4 0 6 7 10 15 10 8 0 15 -2 15 -4z"/>
<path d="M762 528 c1 -293 4 -491 5 -440 3 82 6 92 22 92 14 0 21 10 25 35 14
71 25 32 29 -92 1 -71 4 112 5 405 l2 532 -45 0 -45 0 2 -532z"/>
<path d="M2 498 c2 -277 4 -403 5 -281 3 181 6 223 17 223 8 0 17 8 21 18 6
16 7 16 16 -1 15 -26 29 -11 29 34 0 28 4 39 15 39 12 0 15 19 15 111 0 131
19 179 69 179 20 0 21 6 21 90 l0 90 -105 0 -105 0 2 -502z"/>
<path d="M1295 369 c-31 -18 -45 -40 -45 -73 1 -38 18 -62 53 -75 57 -22 127
19 127 75 0 55 -86 101 -135 73z m93 -66 c4 -28 -21 -45 -60 -41 -28 2 -34 7
-36 31 -3 21 2 29 20 36 32 12 72 -2 76 -26z"/>
<path d="M1274 186 c-11 -9 -19 -31 -22 -70 l-4 -56 86 0 86 0 0 60 c0 55 -2
61 -26 72 -18 8 -30 9 -42 1 -10 -6 -26 -7 -39 -2 -13 5 -28 3 -39 -5z m114
-59 c3 -22 -1 -27 -17 -27 -15 0 -21 6 -21 23 0 46 33 49 38 4z m-68 -2 c0
-16 -6 -25 -15 -25 -9 0 -15 9 -15 25 0 16 6 25 15 25 9 0 15 -9 15 -25z"/>
<path d="M361 54 c0 -11 3 -14 6 -6 3 7 2 16 -1 19 -3 4 -6 -2 -5 -13z"/>
</g>
</svg>
